<svg id="Layer_1" xmlns="http://www.w3.org/2000/svg" width="153" height="52" viewBox="0 0 153 52"><style>.st0{fill:#010101}</style><path class="st0" d="M54.4 35.7l16 16.1h4.2L58.5 35.7zm37.8 0l16.1 16.1h4.1l-16-16.1zM109 .2h3.8L87.6 31.1v-4.7zm11.4 0h-2.6v51.6h2.9V6.1l29.2 45.7h3zm29.6 0h2.9v30.9H150zM82 51.8V.2h-2.9v51.6H82zM9.9.2h7.3c13.4 0 24.4 10.9 24.4 24.4v2.8c0 13.4-10.9 24.4-24.4 24.4H9.9v-2.9h7.3c11.8 0 21.4-9.6 21.4-21.4v-2.8c0-11.8-9.6-21.4-21.4-21.4H9.9m39.8 24.8h7.1c6.5 0 11.9-5.2 11.9-11.7v-1.6c0-6.4-5.3-11.7-11.9-11.7H44.6V.2h12.2c8.2 0 14.8 6.5 14.8 14.6v1.6c0 8.1-6.7 14.6-14.8 14.6h-7.1v-2.9z"/><path class="st0" d="M.1 15l16.1 16.1h4.1L4.2 15z"/></svg>