<svg id="Layer_1" xmlns="http://www.w3.org/2000/svg" width="300" height="75" viewBox="0 0 300 75"><style>.st0{display:none;fill:#fff;stroke:#000;stroke-miterlimit:10}.st1{fill:#010101}</style><path class="st0" d="M0 0h75v75H0zm75 0h75v75H75zm75 0h75v75h-75zm75 0h75v75h-75z"/><path class="st1" d="M47.6 18.4v6.1h-3.7c-1.3 0-2.2.3-2.7.8-.5.6-.7 1.4-.7 2.5v4.4h6.8l-.9 6.9h-5.9v17.7h-7.1V39.2h-5.9v-6.9h5.9v-5.1c0-2.9.8-5.1 2.4-6.7 1.6-1.6 3.8-2.4 6.4-2.4 2.3 0 4.1.1 5.4.3zm51.1.6h27.5c2.6 0 4.7 1.9 4.7 4.7v27.5c0 2.8-2.1 4.7-4.7 4.7H98.7c-2.6 0-4.7-1.9-4.7-4.7V23.7c0-2.8 2.1-4.7 4.7-4.7zm22.3 4.1c-.9 0-1.7.7-1.7 1.7v4c0 .9.7 1.7 1.7 1.7h4.2c.9 0 1.7-.7 1.7-1.7v-4c0-.9-.7-1.7-1.7-1.7H121zm5.8 11.5h-3.3c.3 1 .5 2.1.5 3.2 0 6.2-5.2 11.1-11.5 11.1S101 44 101 37.8c0-1.1.2-2.2.5-3.2h-3.4v15.6c0 .8.7 1.5 1.5 1.5h25.8c.8 0 1.5-.7 1.5-1.5l-.1-15.6zm-14.3-4.4c-4.1 0-7.4 3.2-7.4 7.2s3.3 7.2 7.4 7.2c4.1 0 7.4-3.2 7.4-7.2s-3.3-7.2-7.4-7.2zm98.3-7.2c-1.3 1.9-2.9 3.6-4.8 4.9v1.2c0 2.6-.4 5.1-1.1 7.7-.7 2.5-1.9 5-3.4 7.3s-3.3 4.4-5.4 6.2c-2.1 1.8-4.6 3.2-7.6 4.3s-6.1 1.6-9.5 1.6c-5.3 0-10.2-1.4-14.6-4.3.7.1 1.5.1 2.3.1 4.4 0 8.4-1.4 11.8-4.1-2.1 0-3.9-.7-5.5-1.9s-2.8-2.8-3.4-4.7c.6.1 1.2.1 1.8.1.8 0 1.7-.1 2.5-.3-2.2-.5-4-1.6-5.5-3.3-1.4-1.7-2.2-3.8-2.2-6.1v-.1c1.3.7 2.8 1.2 4.3 1.2-1.3-.9-2.3-2-3.1-3.4-.8-1.4-1.2-2.9-1.2-4.5 0-1.7.4-3.3 1.3-4.8 2.4 2.9 5.3 5.3 8.7 7 3.4 1.8 7.1 2.7 11 2.9-.2-.7-.2-1.5-.2-2.2 0-2.6.9-4.9 2.8-6.7 1.9-1.9 4.1-2.8 6.7-2.8 2.8 0 5.1 1 7 3 2.1-.4 4.2-1.2 6.1-2.3-.7 2.3-2.1 4-4.2 5.3 1.7 0 3.5-.5 5.4-1.3zm58.6 22v4.5c0 1-.3 1.4-.8 1.4-.3 0-.7-.2-1-.5V44c.3-.3.6-.5 1-.5.5 0 .8.5.8 1.5zm7.3 0v1h-1.9v-1c0-1 .3-1.5 1-1.5.5 0 .9.5.9 1.5zm-20.8-4.7h2.3v-2h-6.7v2h2.3v12.2h2.1V40.3zm6.2 12.2h1.9V41.9h-1.9V50c-.4.6-.8.9-1.2.9-.3 0-.4-.2-.5-.5v-8.6h-1.9v8.4c0 .7.1 1.2.2 1.6.2.5.6.8 1.2.8.7 0 1.4-.4 2.2-1.3v1.2zm9.2-3.2v-4.2c0-1-.1-1.8-.2-2.1-.2-.8-.8-1.2-1.5-1.2s-1.4.4-2 1.2v-4.7h-1.9v14.2h1.9v-1c.6.8 1.3 1.2 2 1.2.8 0 1.3-.4 1.5-1.2.2-.4.2-1.1.2-2.2zm7.3-.2v-.3h-2v1.3c-.1.5-.4.8-.9.8-.7 0-1-.5-1-1.5v-1.9h3.8v-2.2c0-1.1-.2-2-.6-2.5-.6-.7-1.3-1.1-2.3-1.1-1 0-1.7.4-2.3 1.1-.4.5-.6 1.4-.6 2.5V49c0 1.1.2 2 .6 2.5.6.7 1.3 1.1 2.3 1.1 1 0 1.8-.4 2.3-1.1.3-.4.4-.8.5-1.2.2-.1.2-.5.2-1.2zm-13.1-19.6V25c0-1-.3-1.5-.9-1.5-.6 0-.9.5-.9 1.5v4.5c0 1 .3 1.5.9 1.5.6 0 .9-.5.9-1.5zM281 45.7c0 3.3-.2 5.9-.6 7.5-.2.8-.6 1.6-1.2 2.1-.6.6-1.4.9-2.2 1-2.6.3-6.6.5-11.9.5-5.3 0-9.3-.2-11.9-.5-.8-.1-1.6-.4-2.2-1s-1-1.3-1.2-2.1c-.4-1.6-.6-4.1-.6-7.5 0-3.3.2-5.9.6-7.5.2-.8.6-1.6 1.2-2.1.6-.6 1.4-.9 2.2-1 2.6-.3 6.6-.4 11.9-.4 5.3 0 9.3.1 11.9.4.8.1 1.6.4 2.2 1 .6.6 1 1.3 1.2 2.1.4 1.5.6 4 .6 7.5zm-21.5-27.4h2.2l-2.6 8.6v5.8H257v-5.8c-.2-1.1-.6-2.6-1.3-4.5-.5-1.5-1-2.8-1.4-4h2.3l1.5 5.6 1.4-5.7zm8 7.1v3.8c0 1.2-.2 2-.6 2.5-.5.7-1.3 1.1-2.3 1.1-1 0-1.7-.4-2.3-1.1-.4-.5-.6-1.4-.6-2.5v-3.8c0-1.1.2-2 .6-2.5.5-.7 1.3-1.1 2.3-1.1 1 0 1.7.4 2.3 1.1.4.5.6 1.4.6 2.5zm7.2-3.5v10.7h-2v-1.2c-.8.9-1.5 1.3-2.2 1.3-.7 0-1.1-.3-1.3-.8-.1-.3-.2-.9-.2-1.6v-8.5h2v8.7c0 .3.2.5.5.5.4 0 .8-.3 1.2-.9v-8.2h2z"/></svg>