<?xml version="1.0" encoding="utf-8"?>
<!-- Generator: Adobe Illustrator 17.0.0, SVG Export Plug-In . SVG Version: 6.00 Build 0)  -->
<!DOCTYPE svg PUBLIC "-//W3C//DTD SVG 1.1//EN" "http://www.w3.org/Graphics/SVG/1.1/DTD/svg11.dtd">
<svg version="1.1" id="Layer_1" xmlns="http://www.w3.org/2000/svg" xmlns:xlink="http://www.w3.org/1999/xlink" x="0px" y="0px"
	 width="180px" height="90px" viewBox="0 0 180 90" enable-background="new 0 0 180 90" xml:space="preserve">
<polygon fill="#8D8D8D" points="45,4 45,10.5 26,29.188 26,30.929 45,49.848 45,56 20,33.018 20,27.214 "/>
<polygon fill="#8D8D8D" points="76,56 76,49.5 95,30.813 95,29.071 76,10.152 76,4 101,26.982 101,32.786 "/>
<polygon fill="#8D8D8D" points="22,61.313 22,64.656 10,74.27 10,75.165 22,84.898 22,88.063 8,76.24 8,73.254 "/>
<polygon fill="#8D8D8D" points="38,88.688 38,85.344 50,75.73 50,74.835 38,65.102 38,61.938 52,73.76 52,76.746 "/>
<g>
	<path fill="#010101" d="M150.155,0.5c-16.015,0-29,12.985-29,29s12.985,29,29,29s29-12.985,29-29S166.17,0.5,150.155,0.5z
		 M164.176,39.275c0.194,0.194,0.298,0.453,0.298,0.725c0,0.272-0.104,0.544-0.298,0.725l-2.796,2.809
		c-0.207,0.207-0.466,0.298-0.725,0.298s-0.531-0.104-0.725-0.298l-9.775-9.788l-9.762,9.8c-0.194,0.207-0.466,0.298-0.725,0.298
		s-0.531-0.104-0.725-0.298l-2.796-2.809c-0.194-0.194-0.298-0.453-0.298-0.725c0-0.272,0.104-0.544,0.298-0.725l9.8-9.839
		l-9.826-9.71c-0.401-0.401-0.401-1.062,0-1.463l2.796-2.809c0.194-0.194,0.453-0.298,0.725-0.298c0.272,0,0.531,0.104,0.725,0.298
		l9.8,9.671l9.8-9.671c0.194-0.194,0.453-0.298,0.725-0.298c0.272,0,0.531,0.104,0.725,0.298l2.796,2.809
		c0.401,0.401,0.401,1.062,0,1.463l-9.826,9.71L164.176,39.275z"/>
</g>
<g>
	<path fill="#010101" d="M74.767,61c-7.731,0-14,6.269-14,14s6.269,14,14,14s14-6.269,14-14S82.498,61,74.767,61z M81.536,79.719
		c0.094,0.094,0.144,0.219,0.144,0.35s-0.05,0.263-0.144,0.35l-1.35,1.356c-0.1,0.1-0.225,0.144-0.35,0.144s-0.256-0.05-0.35-0.144
		l-4.719-4.725l-4.712,4.731c-0.094,0.1-0.225,0.144-0.35,0.144s-0.256-0.05-0.35-0.144l-1.35-1.356
		c-0.094-0.094-0.144-0.219-0.144-0.35s0.05-0.262,0.144-0.35l4.731-4.75l-4.744-4.688c-0.194-0.194-0.194-0.512,0-0.706l1.35-1.356
		c0.094-0.094,0.219-0.144,0.35-0.144s0.256,0.05,0.35,0.144l4.731,4.669l4.731-4.669c0.094-0.094,0.219-0.144,0.35-0.144
		s0.256,0.05,0.35,0.144l1.35,1.356c0.194,0.194,0.194,0.513,0,0.706l-4.744,4.688L81.536,79.719z"/>
</g>
<polygon points="112,61.313 112,64.656 100,74.27 100,75.165 112,84.898 112,88.063 98,76.24 98,73.254 "/>
<polygon points="128,88.688 128,85.344 140,75.73 140,74.835 128,65.102 128,61.938 142,73.76 142,76.746 "/>
</svg>
