<?xml version="1.0" encoding="utf-8"?>
<!-- Generator: Adobe Illustrator 20.1.0, SVG Export Plug-In . SVG Version: 6.00 Build 0)  -->
<svg version="1.1" id="Layer_1" xmlns="http://www.w3.org/2000/svg" xmlns:xlink="http://www.w3.org/1999/xlink" x="0px" y="0px"
	 width="153px" height="52px" viewBox="0 0 153 52" style="enable-background:new 0 0 153 52;" xml:space="preserve">
<style type="text/css">
	.st0{fill:#FFFFFF;}
</style>
<g>
	<polygon class="st0" points="54.5,35.8 70.6,51.9 74.7,51.9 58.7,35.8 	"/>
	<polygon class="st0" points="92.4,35.8 108.4,51.9 112.5,51.9 96.5,35.8 	"/>
	<polygon class="st0" points="109.1,0.3 112.9,0.3 87.7,31.2 87.7,26.5 	"/>
	<polygon class="st0" points="120.5,0.3 117.9,0.3 117.9,51.9 120.8,51.9 120.8,6.2 150,51.9 152.9,51.9 	"/>
	<rect x="150.1" y="0.3" class="st0" width="2.9" height="30.8"/>
	<path class="st0" d="M82.2,51.9V0.3h-2.9v51.5C79.3,51.9,82.1,51.9,82.2,51.9z"/>
	<path class="st0" d="M10.1,0.3h7.3c13.4,0,24.3,10.9,24.3,24.3v2.8c0,13.4-10.9,24.3-24.3,24.3c0,0-7.3,0-7.3,0v-2.9h7.3
		c11.8,0,21.4-9.6,21.4-21.4v-2.8c0-11.8-9.6-21.4-21.4-21.4h-7.3"/>
	<path class="st0" d="M49.9,28.2H57c6.5,0,11.9-5.2,11.9-11.7v-1.6c0-6.4-5.3-11.7-11.9-11.7H44.8V0.3H57c8.2,0,14.8,6.5,14.8,14.6
		v1.6c0,8.1-6.6,14.6-14.8,14.6c0,0-3.3,0-5.5,0h-1.6L49.9,28.2z"/>
	<polygon class="st0" points="0.3,15.1 16.3,31.2 20.4,31.2 4.4,15.1 	"/>
</g>
</svg>
