<?xml version="1.0" encoding="utf-8"?>
<!-- Generator: Adobe Illustrator 20.1.0, SVG Export Plug-In . SVG Version: 6.00 Build 0)  -->
<svg version="1.1" id="Layer_1" xmlns="http://www.w3.org/2000/svg" xmlns:xlink="http://www.w3.org/1999/xlink" x="0px" y="0px"
	 width="300px" height="75px" viewBox="0 0 300 75" style="enable-background:new 0 0 300 75;" xml:space="preserve">
<style type="text/css">
	.st0{display:none;fill:#FFFFFF;stroke:#000000;stroke-miterlimit:10;}
	.st1{fill:#010101;}
</style>
<rect class="st0" width="75" height="75"/>
<rect x="75" class="st0" width="75" height="75"/>
<rect x="150" class="st0" width="75" height="75"/>
<rect x="225" class="st0" width="75" height="75"/>
<path class="st1" d="M47.6,18.4v6.1h-3.7c-1.3,0-2.2,0.3-2.7,0.8c-0.5,0.6-0.7,1.4-0.7,2.5v4.4h6.8l-0.9,6.9h-5.9v17.7h-7.1V39.2
	h-5.9v-6.9h5.9v-5.1c0-2.9,0.8-5.1,2.4-6.7c1.6-1.6,3.8-2.4,6.4-2.4C44.5,18.1,46.3,18.2,47.6,18.4L47.6,18.4z"/>
<path class="st1" d="M98.7,19h27.5c2.6,0,4.7,1.9,4.7,4.7v27.5c0,2.8-2.1,4.7-4.7,4.7H98.7c-2.6,0-4.7-1.9-4.7-4.7V23.7
	C94,20.9,96.1,19,98.7,19C98.7,19,98.7,19,98.7,19z M121,23.1c-0.9,0-1.7,0.7-1.7,1.7v4c0,0.9,0.7,1.7,1.7,1.7h4.2
	c0.9,0,1.7-0.7,1.7-1.7v-4c0-0.9-0.7-1.7-1.7-1.7C125.1,23.1,121,23.1,121,23.1z M126.8,34.6h-3.3c0.3,1,0.5,2.1,0.5,3.2
	c0,6.2-5.2,11.1-11.5,11.1S101,44,101,37.8c0-1.1,0.2-2.2,0.5-3.2h-3.4v15.6c0,0.8,0.7,1.5,1.5,1.5h25.8c0.8,0,1.5-0.7,1.5-1.5
	L126.8,34.6L126.8,34.6L126.8,34.6z M112.5,30.2c-4.1,0-7.4,3.2-7.4,7.2s3.3,7.2,7.4,7.2c4.1,0,7.4-3.2,7.4-7.2
	S116.6,30.2,112.5,30.2z"/>
<path class="st1" d="M210.8,23c-1.3,1.9-2.9,3.6-4.8,4.9c0,0.3,0,0.7,0,1.2c0,2.6-0.4,5.1-1.1,7.7c-0.7,2.5-1.9,5-3.4,7.3
	c-1.5,2.3-3.3,4.4-5.4,6.2c-2.1,1.8-4.6,3.2-7.6,4.3s-6.1,1.6-9.5,1.6c-5.3,0-10.2-1.4-14.6-4.3c0.7,0.1,1.5,0.1,2.3,0.1
	c4.4,0,8.4-1.4,11.8-4.1c-2.1,0-3.9-0.7-5.5-1.9c-1.6-1.2-2.8-2.8-3.4-4.7c0.6,0.1,1.2,0.1,1.8,0.1c0.8,0,1.7-0.1,2.5-0.3
	c-2.2-0.5-4-1.6-5.5-3.3c-1.4-1.7-2.2-3.8-2.2-6.1v-0.1c1.3,0.7,2.8,1.2,4.3,1.2c-1.3-0.9-2.3-2-3.1-3.4c-0.8-1.4-1.2-2.9-1.2-4.5
	c0-1.7,0.4-3.3,1.3-4.8c2.4,2.9,5.3,5.3,8.7,7c3.4,1.8,7.1,2.7,11,2.9c-0.2-0.7-0.2-1.5-0.2-2.2c0-2.6,0.9-4.9,2.8-6.7
	c1.9-1.9,4.1-2.8,6.7-2.8c2.8,0,5.1,1,7,3c2.1-0.4,4.2-1.2,6.1-2.3c-0.7,2.3-2.1,4-4.2,5.3C207.1,24.3,208.9,23.8,210.8,23L210.8,23
	z"/>
<path class="st1" d="M269.4,45v4.5c0,1-0.3,1.4-0.8,1.4c-0.3,0-0.7-0.2-1-0.5V44c0.3-0.3,0.6-0.5,1-0.5
	C269.1,43.5,269.4,44,269.4,45L269.4,45z M276.7,45v1h-1.9v-1c0-1,0.3-1.5,1-1.5C276.3,43.5,276.7,44,276.7,45L276.7,45z
	 M255.9,40.3h2.3v-2h-6.7v2h2.3v12.2h2.1L255.9,40.3L255.9,40.3z M262.1,52.5h1.9V41.9h-1.9V50c-0.4,0.6-0.8,0.9-1.2,0.9
	c-0.3,0-0.4-0.2-0.5-0.5c0,0,0-0.3,0-0.8v-7.8h-1.9v8.4c0,0.7,0.1,1.2,0.2,1.6c0.2,0.5,0.6,0.8,1.2,0.8c0.7,0,1.4-0.4,2.2-1.3V52.5
	L262.1,52.5z M271.3,49.3v-4.2c0-1-0.1-1.8-0.2-2.1c-0.2-0.8-0.8-1.2-1.5-1.2c-0.7,0-1.4,0.4-2,1.2v-4.7h-1.9v14.2h1.9v-1
	c0.6,0.8,1.3,1.2,2,1.2c0.8,0,1.3-0.4,1.5-1.2C271.3,51.1,271.3,50.4,271.3,49.3L271.3,49.3z M278.6,49.1v-0.3h-2c0,0.7,0,1.2,0,1.3
	c-0.1,0.5-0.4,0.8-0.9,0.8c-0.7,0-1-0.5-1-1.5v-1.9h3.8v-2.2c0-1.1-0.2-2-0.6-2.5c-0.6-0.7-1.3-1.1-2.3-1.1c-1,0-1.7,0.4-2.3,1.1
	c-0.4,0.5-0.6,1.4-0.6,2.5v3.7c0,1.1,0.2,2,0.6,2.5c0.6,0.7,1.3,1.1,2.3,1.1c1,0,1.8-0.4,2.3-1.1c0.3-0.4,0.4-0.8,0.5-1.2
	C278.6,50.2,278.6,49.8,278.6,49.1L278.6,49.1z M265.5,29.5V25c0-1-0.3-1.5-0.9-1.5c-0.6,0-0.9,0.5-0.9,1.5v4.5c0,1,0.3,1.5,0.9,1.5
	C265.2,31,265.5,30.5,265.5,29.5z M281,45.7c0,3.3-0.2,5.9-0.6,7.5c-0.2,0.8-0.6,1.6-1.2,2.1c-0.6,0.6-1.4,0.9-2.2,1
	c-2.6,0.3-6.6,0.5-11.9,0.5c-5.3,0-9.3-0.2-11.9-0.5c-0.8-0.1-1.6-0.4-2.2-1s-1-1.3-1.2-2.1c-0.4-1.6-0.6-4.1-0.6-7.5
	c0-3.3,0.2-5.9,0.6-7.5c0.2-0.8,0.6-1.6,1.2-2.1c0.6-0.6,1.4-0.9,2.2-1c2.6-0.3,6.6-0.4,11.9-0.4c5.3,0,9.3,0.1,11.9,0.4
	c0.8,0.1,1.6,0.4,2.2,1c0.6,0.6,1,1.3,1.2,2.1C280.8,39.7,281,42.2,281,45.7z M259.5,18.3h2.2l-2.6,8.6v5.8H257v-5.8
	c-0.2-1.1-0.6-2.6-1.3-4.5c-0.5-1.5-1-2.8-1.4-4h2.3l1.5,5.6L259.5,18.3z M267.5,25.4v3.8c0,1.2-0.2,2-0.6,2.5
	c-0.5,0.7-1.3,1.1-2.3,1.1c-1,0-1.7-0.4-2.3-1.1c-0.4-0.5-0.6-1.4-0.6-2.5v-3.8c0-1.1,0.2-2,0.6-2.5c0.5-0.7,1.3-1.1,2.3-1.1
	c1,0,1.7,0.4,2.3,1.1C267.3,23.4,267.5,24.3,267.5,25.4z M274.7,21.9v10.7h-2v-1.2c-0.8,0.9-1.5,1.3-2.2,1.3c-0.7,0-1.1-0.3-1.3-0.8
	c-0.1-0.3-0.2-0.9-0.2-1.6v-8.5h2v7.9c0,0.5,0,0.7,0,0.8c0,0.3,0.2,0.5,0.5,0.5c0.4,0,0.8-0.3,1.2-0.9v-8.2
	C272.7,21.9,274.7,21.9,274.7,21.9z"/>
</svg>
